<svg version="1.2" xmlns="http://www.w3.org/2000/svg" viewBox="0 0 41 39" width="41" height="39"><style>.a{fill:#fff}</style><path class="a" d="m4.6 9v-7.3c0-0.7 0.6-1.3 1.3-1.3 0.7 0 1.3 0.6 1.3 1.3v7.3h1.3v-7.3c0-0.7 0.6-1.3 1.4-1.3 0.7 0 1.3 0.6 1.3 1.3v8.6c0 1.4-1.2 2.6-2.7 2.6h-1.3v24.3c0 0.7-0.6 1.3-1.3 1.3-0.7 0-1.3-0.6-1.3-1.3v-24.3h-1.3c-1.5 0-2.6-1.2-2.6-2.6v-8.6c0-0.7 0.6-1.3 1.3-1.3 0.7 0 1.3 0.6 1.3 1.3v7.3z"/><path class="a" d="m40.1 37.2v-36.8c-2.1 0.8-3.5 2.7-3.7 4.9l-1.6 13.5 2.6 3.3v15.1c0 0.7 0.6 1.3 1.3 1.3 0.8 0 1.4-0.6 1.4-1.3z"/><path class="a" d="m30.5 31.9c-1.7 0-3.2 0.9-3.9 2h-15.4c-0.8 0-1.3 0.6-1.3 1.3 0 0.8 0.5 1.3 1.3 1.3h15.4c0.7 1.2 2.2 2 3.9 2 2.4 0 4.3-1.5 4.3-3.3 0-1.8-1.9-3.3-4.3-3.3z"/><path fill-rule="evenodd" class="a" d="m14.8 21.5c-1.8-1.9-3-4.4-3-7.3 0-5.8 4.7-10.5 10.5-10.5 5.8 0 10.5 4.7 10.5 10.5 0 2.5-0.8 4.8-2.2 6.5l-7.6-9.2zm8.7-13.1q0.6 0.1 1.2 0.4l0.5-1.2q-0.7-0.3-1.4-0.5zm-8.4 5.8h1.3c0-3.3 2.6-5.9 5.9-5.9v-1.3c-4 0-7.2 3.2-7.2 7.2z"/><path class="a" d="m23 13.6l11.8 14.4h-23.6z"/></svg>