<svg version="1.2" xmlns="http://www.w3.org/2000/svg" viewBox="0 0 52 41" width="52" height="41"><style>.a{fill:#fff}.b{fill:#26bbe3}</style><path fill-rule="evenodd" class="a" d="m32.7 21.7c0 5.3-4.7 16.4-12.3 18.6-1 0.3-2.8-0.6-4.1-0.6-1.2 0-2.9 1.1-4.3 0.6-6.9-2.8-12-13.6-12-18.6 0-3.6 1.9-8.6 6.3-10.3 3.8-1.6 5.8 0.1 8.7 0.5q0-0.8-0.1-1.5 0-0.6-0.1-1.3 0 0 0 0 0-0.1 0-0.1 0-0.1-0.1-0.3 0-0.3-0.1-0.6-0.4-2.3-1.1-4.5c-0.4-0.4-0.7-0.7-0.7-1.3 0-1 2.1-1.8 2.9 0q0.1 0.4 0.2 1 0.7 2.1 1.1 4.3c0.5-2 1.6-4.6 3.6-5.9 3.6-2.1 9.4-0.8 9.4-0.8 0 0-1.8 5.8-6.6 7-3.1 0.8-5.1 2-6.1 2.8q0.1 0.6 0.1 1.2c2.9-0.4 4.4-2.2 9-0.3 5.2 2.2 6.3 6.5 6.3 10.1zm-27.1 2.8c-0.7-1.4-1.2-3.5-0.1-5.3 0.3-0.5 0.1-1.1-0.3-1.4-0.5-0.3-1.1-0.1-1.4 0.4-1.5 2.5-0.9 5.3 0 7.1 0.1 0.4 0.5 0.6 0.9 0.6q0.2 0 0.4-0.1c0.5-0.2 0.7-0.8 0.5-1.3zm2.2-8.5c0-0.5-0.4-0.9-1-0.9-0.5 0-1 0.4-1 0.9 0 0.6 0.5 1 1 1 0.6 0 1-0.4 1-1z"/><path class="a" d="m50.4 25.9c0 6.9-5.5 12.5-12.4 12.5-6.9 0-12.4-5.6-12.4-12.5 0-6.8 5.5-12.4 12.4-12.4 6.9 0 12.4 5.6 12.4 12.4z"/><path fill-rule="evenodd" class="b" d="m38 39.4c-7.4 0-13.4-6.1-13.4-13.5 0-7.4 6-13.4 13.4-13.4 7.4 0 13.4 6 13.4 13.4 0 7.4-6 13.5-13.4 13.5zm0-24.9c-6.3 0-11.4 5.1-11.4 11.4 0 6.3 5.1 11.5 11.4 11.5 6.3 0 11.4-5.2 11.4-11.5 0-6.3-5.1-11.4-11.4-11.4z"/><path class="b" d="m38 33.7c-0.6 0-1-0.4-1-1v-13.6c0-0.5 0.4-1 1-1 0.5 0 1 0.5 1 1v13.6c0 0.6-0.5 1-1 1z"/><path class="b" d="m44.8 26.9h-13.6c-0.6 0-1-0.4-1-1 0-0.5 0.4-1 1-1h13.6c0.5 0 1 0.5 1 1 0 0.6-0.5 1-1 1z"/></svg>