<svg version="1.2" xmlns="http://www.w3.org/2000/svg" viewBox="0 0 34 48" width="34" height="48"><style>.a{fill:#fff}.b{fill:#26bbe3}</style><path class="a" d="m13 0.7c-6.1 1.3-11.2 6.3-12.5 12.5-1.1 5.3 0.3 10.5 3.8 14.5 1.4 1.6 2.3 3.5 2.6 5.5h19.4c0.3-2 1.2-4 2.6-5.6 2.6-3 4.2-6.8 4.2-10.8 0-10.4-9.7-18.3-20.1-16.1z"/><path class="b" d="m24.4 34.3l-1.2-9.1h0.1c0.3 0 0.6-0.3 0.6-0.6v-13.1c0-0.2-0.1-0.4-0.3-0.6-0.2-0.1-0.4-0.1-0.6 0-2.5 1.3-4.1 3.9-4.1 6.8v5.5c0 1.1 0.9 2 2 2h0.1l-1.2 9.1c0 0.6 0.2 1.3 0.6 1.8 0.4 0.5 1.1 0.8 1.7 0.8 0.7 0 1.3-0.3 1.8-0.8 0.4-0.5 0.6-1.2 0.5-1.8z"/><path class="b" d="m14.4 10.5c-0.5 0-0.9 0.4-0.9 0.9v4.9h-0.9v-4.9c0-0.5-0.4-0.9-0.9-0.9-0.5 0-0.9 0.4-0.9 0.9v4.9h-0.8v-4.9c0-0.5-0.4-0.9-0.9-0.9-0.5 0-0.9 0.4-0.9 0.9v4.9 0.8 2.3c0 1.3 1 2.3 2.4 2.3h0.2l-1.4 12.6c-0.1 0.6 0.1 1.3 0.6 1.8 0.4 0.5 1 0.8 1.7 0.8 0.7 0 1.3-0.3 1.8-0.8 0.4-0.5 0.6-1.2 0.6-1.8l-1.4-12.6h0.2c1.3 0 2.3-1 2.3-2.3v-2.3-0.8-4.9c0-0.5-0.3-0.9-0.8-0.9z"/><path class="a" d="m23.3 41.2c1.6-0.5 2.8-2.1 2.8-3.9v-1.4h-19.1v1.4c0 1.8 1.2 3.4 2.8 3.9"/><path class="a" d="m9.8 42.2c0.6 3.2 3.4 5.8 6.8 5.8 3.3 0 6.1-2.6 6.7-5.8"/><path class="b" d="m29.6 17.8c-0.5 0-0.9-0.4-0.9-1 0-2.6-0.9-5.2-2.5-7.3-0.3-0.4-0.3-1 0.2-1.4 0.4-0.3 1-0.2 1.4 0.2 1.8 2.5 2.8 5.4 2.8 8.5 0 0.6-0.4 1-1 1z"/><path class="b" d="m23.7 6.9q-0.3 0-0.6-0.2-0.2-0.2-0.5-0.3c-0.5-0.3-0.6-0.9-0.3-1.4 0.2-0.4 0.8-0.6 1.3-0.3q0.3 0.1 0.6 0.3c0.5 0.3 0.6 0.9 0.3 1.4-0.2 0.3-0.5 0.5-0.8 0.5z"/></svg>