<svg version="1.2" xmlns="http://www.w3.org/2000/svg" viewBox="0 0 54 62" width="54" height="62"><style>.a{fill:#fff}</style><path class="a" d="m27.2 32.5c-0.6 0-1-0.5-1-1v-29.9c0-0.5 0.4-1 1-1 0.5 0 0.9 0.5 0.9 1v29.9c0 0.5-0.4 1-0.9 1z"/><path class="a" d="m1.3 47.4c-0.4 0-0.7-0.2-0.9-0.5-0.2-0.5-0.1-1.1 0.4-1.4l25.9-14.9c0.4-0.3 1-0.1 1.3 0.4 0.3 0.5 0.1 1.1-0.3 1.3l-25.9 15q-0.3 0.1-0.5 0.1z"/><path class="a" d="m53 47.4q-0.2 0-0.5-0.1l-25.8-15c-0.5-0.2-0.7-0.8-0.4-1.3 0.3-0.5 0.9-0.7 1.4-0.4l25.8 14.9c0.5 0.3 0.7 0.9 0.4 1.4-0.2 0.3-0.5 0.5-0.9 0.5z"/><path fill-rule="evenodd" class="a" d="m38.5 20.7c-3.3-6.1-1.4-6.9 0.8-8.1 2.2-1.2 4-2.4 7.3 3.7 3.3 6.1 7.2 17.8 5 19-2.2 1.2-9.8-8.5-13.1-14.6zm9.4 4.3c0.4 0.1 0.9-0.2 0.9-0.6 0.1-0.5-0.2-0.9-0.6-1-0.5-0.1-0.9 0.2-1 0.7-0.1 0.4 0.2 0.8 0.7 0.9zm2.6 6.7c0.4-0.1 0.7-0.5 0.6-0.9 0-0.1-0.3-1.7-1.5-4.9-0.2-0.4-0.7-0.6-1.1-0.5-0.2 0.1-0.4 0.3-0.5 0.6q0 0.2 0 0.5c1.2 3.1 1.5 4.6 1.5 4.6 0.1 0.4 0.5 0.7 1 0.6z"/><path class="a" d="m37.5 12q0.4-0.2 0.9-0.5l0.4-0.2 0.1-0.1q0 0 0 0 0.4-0.2 0.9-0.4c0-0.9 0.2-1.8 0.8-2.6 0.3-0.4 0.2-0.8-0.1-1.1-0.3-0.1-0.6-0.2-0.8 0q-0.1 0.1-0.2 0.2c-0.4 0.5-0.6 1-0.8 1.5 0 0.2-0.1 0.3-0.3 0.3-0.1 0-0.2-0.1-0.3-0.2l-1.2-2.3c-0.2-0.4-0.7-0.5-1-0.3-0.4 0.2-0.5 0.6-0.3 1l1.2 2.3q0.1 0.2 0 0.3c-0.1 0.2-0.2 0.2-0.3 0.2-0.6-0.2-1.1-0.3-1.7-0.3q-0.2 0-0.3 0.1c-0.3 0.1-0.4 0.4-0.4 0.7 0 0.4 0.4 0.7 0.8 0.7 1-0.1 1.9 0.2 2.6 0.7z"/><path class="a" d="m5.6 32l2.6-5.2 0.7 0.3c1.2 0.6 2.5 0.7 3.8 0.3 1.2-0.4 2.3-1.3 2.9-2.5 0.1-0.4 0-0.8-0.4-1l-1.2-0.6c-1.3-0.6-2.7-0.7-3.9-0.3l0.7-1.3 0.6 0.3c1.2 0.6 2.6 0.7 3.8 0.3 1.2-0.4 2.3-1.3 2.9-2.5 0.2-0.4 0-0.8-0.3-1l-1.3-0.6c-1.2-0.6-2.7-0.7-3.9-0.2l0.8-1.6 0.4 0.1c0.9 0.1 1.8 0 2.6-0.3 1.4-0.5 2.6-1.5 3.3-2.8 0.1-0.4 0-0.8-0.4-1-0.3-0.2-0.7 0-0.9 0.3-0.6 1.2-1.7 2-2.9 2.3 0.6-0.5 1.1-1.1 1.5-1.8 1.1-2.3-0.2-4.3-0.3-4.4-0.1-0.2-0.4-0.3-0.6-0.3-0.1 0-2.5 0.2-3.6 2.5-0.4 0.7-0.5 1.5-0.5 2.2-0.6-1.1-0.6-2.5 0-3.6 0.2-0.4 0-0.8-0.3-1-0.4-0.2-0.8 0-1 0.3-0.4 1-0.6 2-0.5 2.9q-0.1 0-0.1 0l-1.3-0.6c-0.3-0.2-0.8-0.1-0.9 0.3-0.6 1.2-0.7 2.5-0.3 3.8 0.4 1.3 1.3 2.3 2.5 2.9l0.6 0.3-0.6 1.4c-0.4-1.3-1.3-2.4-2.6-3l-1.2-0.6c-0.4-0.2-0.8 0-1 0.3-1.2 2.5-0.2 5.5 2.3 6.7l0.6 0.3-0.7 1.4q0-0.1 0-0.1c-0.4-1.3-1.3-2.3-2.5-2.9l-1.3-0.6q-0.2-0.1-0.5 0-0.3 0.1-0.4 0.3c-1.2 2.5-0.2 5.5 2.2 6.7l0.7 0.3-1.4 2.7c-0.1 0.4 0 0.8 0.4 1 0.3 0.1 0.7 0 0.9-0.4z"/><path class="a" d="m37.9 44c-1.5 0.6-1.6 2.8-8.1 0.8-3.4-1-6.1-1.1-7.8-1 0.8 0.4 1.6 1.1 2.3 1.9 1.5 1.6 3.2 3.9 3.9 7.5 0.6 2.9-0.3 5.8-2 7.7 3.3-1.3 6.7-4.3 8.7-8.7 1.2-2.6 2.9-2.4 4-3.8 1.1-1.4 0.4-4.9-1-4.4z"/><path fill-rule="evenodd" class="a" d="m22.3 61.5q-0.6 0.1-1.2 0.1c-2.7 0-5.3-2.2-6-5.3-0.5-1.9-0.2-3.8 0.7-5.2q1.2-2 1.5-4.4c0.1-0.7 0.4-1.4 1-1.8q0.5-0.2 1-0.2c1.2 0 2.7 0.8 3.8 2.1 1.4 1.5 2.9 3.5 3.5 6.7 0.7 3.6-1.2 7.2-4.3 8zm0-5.8c-0.2-1.1-1.1-2-1.9-1.8-0.9 0.2-1.5 1.2-1.3 2.4 0.2 1.2 1.1 2 2 1.8 0.9-0.1 1.5-1.2 1.2-2.4z"/></svg>