<svg version="1.2" xmlns="http://www.w3.org/2000/svg" viewBox="0 0 117 101" width="117" height="101"><style>.a{fill:#fefefe}.b{fill:#fff}</style><path class="a" d="m30.7 58.8h3.3l2.7 0.2 2.4 0.3 1.9 0.5 1.3 0.3 0.7 0.3 1.4 0.5 1.8 0.9 0.5 0.4 1 0.5 1 0.6 1.2 1.1 1.5 1.4 0.6 0.7 0.6 0.4 0.2 0.1 6 0.2 6.5 0.6 3.6 0.2 5.6 0.3 2.5 0.3 1.4 0.5 1.2 0.8 0.6 0.6v0.1l0.4 0.2 0.8 0.9 0.9 1.1 0.4 1.2v0.7l0.1 0.7-0.4 0.7-0.5 0.7-0.7 1.1-0.5 0.6-1.1 0.5-0.4 0.1h-4.1l-8-0.3-5.3-0.3-9.2-0.6-2.8-0.2-0.4-0.1 0.1 0.3-0.3 1.1-0.4 0.5-0.1 0.6-0.1 0.3 0.1 0.2 0.9 0.1 0.1 0.1 0.7 0.1 10.8 0.5 6.2 0.4 3.8 0.3 3.2 0.2h3.4l0.8-0.3h1l0.6-0.4 1.1-0.4 1.3-0.8 1.4-1.4 0.8-1.1 1-2.1 1-1 1.7-1.4 1.2-0.7 1.3-0.9 1.3-0.9 1.3-0.9 1.1-0.7 1.8-1.2 1.1-0.8 3.9-2.5 1.7-1 1.7-1.1 2.1-1.1 2.1-0.8 2.1-0.6 1.4-0.3h1.3l1.1 0.1 0.8 0.5 0.7 0.6 0.4 0.9 0.1 0.4v1l-0.3 1-0.5 0.9-1.1 1.3-0.6 0.6-0.7 0.6-1.4 1.3-0.7 0.6-1 0.9-1.3 1.3-0.7 0.6-1 0.9-1 0.8-1.3 1.3-1.1 1-0.7 0.6-1.4 1.3h-0.1l-0.1 0.2-0.7 0.6-1 1-0.7 0.6-0.9 0.8-1.2 1.2-1.1 1-1.2 1-1 1-0.6 0.5-1.1 1.1-0.7 0.6-1 0.8-0.7 0.6-1.2 1-0.9 0.8-0.6 0.4-0.4-0.2-0.4 0.5-0.7 0.1-1.9 0.2-7.1 0.1-18.7 0.1h-16.9l-9.9-0.1-1.9 0.1-2.2 0.3-1.7 0.5-1.1 0.5-1.6 0.8-1.8 0.9-1.5 1-1.7 1-0.9 0.7-0.7 0.3-0.4-0.4-0.7-1.1-0.7-1.4-1.8-3.5-0.7-1.4-0.7-1.4-0.8-1.6-5.7-11.4-0.9-1.9-1.1-2.1-0.3-0.5v-0.3l1.2-0.2 1.6-0.7 1.6-0.9 1.3-0.7 1-0.5 1.8-1 1-0.6 0.5-0.3h0.2v-0.2l0.9-0.6 1-0.7 0.9-0.6 1.2-0.8 2.4-1.4 1.9-0.9 2.3-0.9 2.3-0.8 2.2-0.5 2-0.3z"/><path class="a" d="m75.1 41.9h3.9l2.9 0.3 1.9 0.3 1.9 0.5 2.6 1 1.7 0.7 1.4 0.8 1.8 1.2 1.6 1.2 1.1 1 1.7 1.6 0.7 1 1 1.2 0.9 1.3 1.4 2.5 1.6 3v0.4l-0.6 0.6-1.2 0.9-1.9 1.2-1.5 1.1-2.3 1.5-0.9 0.6-5.3 3.6-1 0.7-1 0.6-1.7 1.2-0.4 0.4-0.3-0.2-1.2-1.8-0.9-1.2-1-1-0.9-0.8-0.9-0.6-1.6-0.7-1.5-0.5-1.7-0.4-1.7-0.1-3.7-0.2-7.1-0.3-6.9-0.2-1.3-0.1-1.2-0.5-1-0.8-1.2-1-0.4-0.3-0.1-0.5 0.1-1 0.6-1.4 0.6-1.5 1.1-1.8 0.6-1.1 0.7-1 0.9-1.3 0.8-0.9 0.9-0.9v-0.2h0.2l0.2-0.3 1.1-1.1 0.7-0.6 1.1-1 1.4-1 1.8-1 1.4-0.7 2-0.7 1.9-0.6 3.1-0.7 2-0.3z"/><path class="a" d="m108.9 0h2.8v2.4l-0.2 2.7-0.4 2.7-0.6 2.1-0.7 2.2-0.6 1.3-0.8 1.5-0.7 1-1.1 1.4-1.4 1.4-1.4 1.1-1.4 0.8-1.5 0.9-2.2 0.9-2.1 0.7-2 0.5-3.2 0.6-3.6 0.6-2.7 0.3-0.5 0.1 0.1-0.5 1.1-1.8 0.6-0.9 0.9-1.1 1.1-1.3 1.2-1.3 1-1.1 1.4-1.5 1-0.8 0.6-0.6 1.2-0.9 1.1-0.8 1.3-0.9 1.4-0.7 0.7-0.6 0.3-0.8v-1l-0.3-0.6-0.5-0.1-1 0.3-1.3 0.6-2.1 1.3-1.1 0.9-0.8 0.5-1.3 1.2-1 0.9-0.4 0.2v0.1l-0.6 0.5-0.6 0.7-0.8 0.9-0.2 0.2h-0.1l-0.2 0.4-1 1.1-1.1 1.5-0.6 0.8h-0.2l-0.1 0.2h-0.1l-0.1-0.9 0.2-1.5 0.6-2.8 0.9-2.5 0.4-0.8 0.7-1.3 0.8-1.5 0.9-1.3 0.9-1.1 0.9-1.1 0.7-0.6 1.6-1.2 1.2-0.7 1-0.6 1.6-0.7 1.7-0.5 2-0.4 2.5-0.4 2.2-0.1z"/><path class="a" d="m65.6 20.7h1.4l1.1 0.4 0.9 0.4 1 0.5 0.9 0.8 0.8 1.1 0.7 1.4 0.6 1.6 0.1 0.7-1.4 0.8-1.3 0.4-1 0.2h-1.8l-1.6-0.3-0.8-0.3-0.7-0.3-0.8-0.8-1-0.9-0.7-1.2-0.4-1.1-0.1-0.4v-1.4l0.3-0.4 1-0.6 1-0.3 1.4-0.2z"/><path class="b" d="m30 58.6h5.7l1.1 0.1 1.4 0.2 2.4 0.5 2.4 0.7 1.8 0.8 1.9 0.9v0.2l0.5 0.2h0.2v0.2l0.3 0.1 0.1 0.3-1.4-0.6-0.6-0.6-1.8-0.8-1.3-0.4-0.7-0.3-1-0.2-1.9-0.5-3-0.4-2.1-0.2h-3.3l-2.3 0.3-2.1 0.4-2 0.6-2.7 1-2.5 1.2-2.1 1.2-1 0.6-2 1.4-1.2 0.8h-0.1v0.2l-1 0.6-0.8 0.5-1.4 0.7-1 0.6-1.6 0.8-1.3 0.7-1.9 0.9-1.2 0.1v0.3l-0.3-0.5-0.4-0.4-0.1-0.3 0.8-0.2 0.9-0.3 1.7-0.6 0.8-0.3 0.9-0.5 0.9-0.4 1-0.3 0.5-0.3 0.1-0.3h0.3v-0.1l0.8-0.4 1.1-0.7 0.7-0.5 0.5-0.3 0.4-0.3 0.3-0.1 0.2-0.4 0.3-0.1v-0.1l1-0.7 0.5-0.3h0.1v-0.2l0.6-0.4 1.7-1.1 2-0.8 0.9-0.4 2-0.6 0.8-0.4 0.3-0.1 1.1-0.3h0.2l0.2 0.1 0.1-0.2 0.1 0.2 0.2-0.1 0.1 0.1 0.9-0.2 1.7-0.1 1.6-0.1z"/><path class="b" d="m87 91.4l0.5 0.1v0.2h-0.4l-0.4 0.4-0.5 0.4-1.1 0.1-0.6 0.1h-6.5l-3.5-0.2h-6.2-5.8-15.3-7.4l-3.8 0.1-4.8 0.3-2.2 0.2-1.3 0.2-1.3 0.4-0.5 0.1-1.7 0.7-1 0.5-1.5 0.7-1 0.5-1.3 0.8-1.1 0.5-1.2 0.7-0.4 0.2h-0.1v0.2h-0.2l-0.1 0.2-0.3-0.4 0.1-0.2 0.3 0.1 0.7-0.4 1.1-0.8 1.3-0.7 1.2-0.8 1.9-1 2.5-1.3 1.3-0.4 1.4-0.4 1.7-0.2 2-0.1 11 0.1h15.7l18.7-0.1 7.1-0.1 1.9-0.1 0.9-0.3z"/><path class="b" d="m57.7 45.4l0.1 0.1-1 1h-0.2l-0.1 0.4h-0.2l-0.2 0.3-0.8 0.9h-0.3l-0.2 0.4-0.3 0.3h-0.2l-0.1 0.4-0.4 0.4h0.2l-0.2 0.3-0.6 1h-0.3v0.2l-0.4 0.4-0.7 0.9-1 1.7-0.5 0.9-0.7 1.4-0.4 1.1-0.4 0.5-0.3 0.9-0.4 0.4-1.3-0.4-0.3 0.2-0.8-0.2-1.9-0.7-1.1-0.4-1-0.4-1.8-0.5-1.5-0.4-0.2-0.1-1-0.1v-0.2l-1.1-0.1-0.8-0.1-2.7-0.2-2.6-0.1v-0.1l2-0.1h2l2.6 0.2 2.5 0.4 2 0.4 1.8 0.5 1.8 0.7 3.1 1.3h0.3l0.6-1.2 0.4-1 0.9-2.1 0.7-1.1 0.8-1.2 1.1-1.8 0.8-1 1.2-1.3 0.7-0.7 0.7-0.5 1-1z"/><path class="b" d="m49.6 64.1l0.4 0.2 0.4 0.5 0.9 0.5 0.3 0.3 0.1 0.4 0.9 0.5 0.7 0.2h2.4v0.1l3.4 0.1 1 0.2 0.9 0.1h1.5l-0.5-0.1 0.1-0.4 1.2 0.1h1l2.4 0.2 1.3 0.2 1.3 0.1 0.3 0.2 1.4 0.1 1.8 0.1 1.7 0.2 1.1 0.3 1.4 0.2 1.3 0.4 0.7 0.4 0.9 0.7 0.3 0.5-0.4-0.2-0.6-0.5-1.2-0.7-1.4-0.4-2.1-0.3-5.6-0.2-3.6-0.3-6.5-0.5-6-0.2-0.8-0.4-0.6-0.7-0.6-0.7-1-0.9z"/><path class="b" d="m20.6 57.7h0.3v0.2l-0.7 0.3-0.9 0.6-1.5 0.8-0.6 0.5-1.2 0.7-0.7 0.3-0.6 0.6-1.1 0.8-0.8 0.6-1.1 0.8-2.6 1.6-1 0.6-0.5 0.3-1.4 0.8-1.6 0.7-1.3 0.7-1.3 0.6-1 0.4-0.5 0.4-0.1 0.1 0.4 0.2v0.4h-0.2l0.3 1-0.1 0.2-0.5-0.9v-0.4h0.4v-0.2l-0.5-0.2-0.2-0.1v-0.3l0.7-0.5 2-1 1.3-0.8 1.6-0.8 1.4-0.8 0.9-0.5 1.4-0.9 0.9-0.5 1.5-1.1 1.7-1.1 0.9-0.6 0.8-0.5 1.2-0.7 0.9-0.6 2.2-1.2z"/><path class="b" d="m29.4 95.2h3.9l7.6 0.1-7.1 0.1-2.4 0.1-1.7 0.2-2 0.4-1.2 0.4-1.3 0.5-2.1 0.9-1.6 0.8-1.5 0.9-0.6 0.4-1.1 0.5-0.3 0.3-0.3-0.1 0.4-0.1 0.2-0.3h0.1l0.1-0.3 0.3-0.1 0.1-0.2 0.9-0.5 0.4-0.4 0.9-0.5 1.3-0.7 1.4-0.6 0.8-0.4 0.7-0.3 1.4-0.5 2.2-0.5z"/><path class="b" d="m82 80.7h0.2l-0.9 0.6-1.2 0.5-0.5 0.3h-1l-0.8 0.3h-3.4l-3.2-0.2-2.2-0.2-1.8-0.2-6-0.3v-0.1h3.3l7.5 0.2 3.7 0.2h1.1 0.8l1.9-0.2 1.8-0.6z"/><path class="b" d="m49.4 77.6l7.1 0.5v0.1l-0.5 0.1v0.1l-0.7 0.1-0.1-0.1v0.1h-0.4l-0.1 0.3-0.8-0.1h-1.4l-1.4-0.1-1.3-0.1v0.3l-0.1-0.1-0.5 0.8-0.2 0.3h-0.2l0.1 0.7 0.1 0.2-0.4-0.1-0.1-0.4 0.2-0.1v-0.6l0.5-0.5 0.1-1.1z"/><path class="b" d="m82 72.4l0.4 0.4 0.5 1.2 0.1 0.7v0.8l-0.3 0.7-0.7 1.2-1.3 1.2-1.1 0.6-1.1 0.2h-3.4l-11.3-0.7v-0.1h1.5l9.8 0.4h4.1l0.4-0.1 0.9-0.4h0.2l0.1-0.4 0.6-0.7 0.8-1 0.5-1-0.1-0.9v-0.5l-0.5-1.3z"/><path class="b" d="m30 58.6h5.7l1.1 0.1 1.4 0.2 2.4 0.5 2.4 0.7 1.8 0.8 1.9 0.9v0.2l0.5 0.2h0.2v0.2l0.3 0.1 0.1 0.3-1.4-0.6-0.6-0.6-1.8-0.8-1.3-0.4-0.7-0.3-1-0.2-1.9-0.5-3-0.4-2.1-0.2h-3.6l-0.4-0.1z"/><path class="b" d="m70 64.8h2.2l2.4 0.2 1.7 0.2 1.6 0.4 1.7 0.7 0.1 0.2h-0.3l-0.7-0.2-0.2-0.2-0.5-0.1v-0.2l-0.2 0.1v-0.2h-0.7l-0.5-0.2-1.2-0.1-0.3-0.1v-0.2l-5.1-0.2z"/><path class="b" d="m77.2 37.1h0.1v0.7l-0.1 0.3-0.5 0.3-1.9 0.3-2.4 0.4h-1.1l3.7-0.7 1.1-0.2h0.2v-0.2l0.8-0.3z"/><path class="b" d="m81.1 19.6h0.1l-0.1 2.3-0.4 3.2-0.1 0.4-0.2 0.7-0.4 1.1-0.1-0.2 0.3-1.1 0.5-2.3 0.1-1.5 0.1-1.5z"/><path class="b" d="m72.3 27.9l0.2 0.1-0.2 0.4-0.4 0.1-1 0.3-1.4 0.2h-2.2l-1.2-0.1-0.8-0.3 0.3-0.1 1.5 0.3 0.5 0.1h1.8l1.3-0.3 1.3-0.5z"/><path class="b" d="m74.9 39.1l0.8 0.1-0.4 0.2-0.9 0.2h-0.7l0.1-0.3z"/><path class="b" d="m98.8 7.8l0.5 0.1v0.3h-0.4l-0.1 0.1-0.6 0.3-0.3-0.1h0.2l0.1-0.3 0.2-0.2v-0.1z"/><path class="b" d="m80.2 70.5l0.6 0.2 0.5 0.5 0.1 0.5-1.2-1.1z"/><path class="b" d="m78.7 29.7l0.2 0.1-0.1 0.5-0.1 0.4h-0.3l0.1-0.4h0.1v-0.2l-0.5 0.1-0.2-0.1 0.6-0.2z"/><path class="b" d="m0.3 70.6h0.3l0.3 1.1-0.1 0.2-0.5-0.9z"/><path class="b" d="m99.6 8.6h0.1v1l-0.4-0.1v-0.4l0.2-0.1z"/><path class="b" d="m53.2 63.5l0.5 0.2 0.5 0.1-0.1 0.2-0.6-0.1-0.3-0.3z"/><path class="b" d="m57.7 20.9l0.2 0.1v0.4l-0.2 0.5h0.2l-0.2 0.3v-0.1-1z"/><path class="b" d="m48.7 79.8h0.1l0.1 0.7 0.1 0.2-0.4-0.1-0.1-0.4z"/></svg>