<svg version="1.2" xmlns="http://www.w3.org/2000/svg" viewBox="0 0 394 401" width="394" height="401"><style>.a{fill:#fdfdfa}.b{fill:#f7fbf0}.c{fill:#f7fbef}.d{fill:#f6fbef}.e{fill:#e6f4d8}.f{fill:#f5fbee}.g{fill:#f8fbf1}.h{fill:#f8fcf1}.i{fill:#f6fbee}.j{fill:#f2f9e9}.k{fill:#f4faec}</style><path class="a" d="m176.6 0.6l11.3 0.5 4.9 0.4 35.4 0.5 21.1 0.4 12.5 0.5 9.5 0.9 6.7 1.8 11.2 4.4 6.3 3.2 7.6 5.4 7.6 6.2 4.9 5 3.2 3.6 5.8 7.6 4.5 6.3 2.7 4.4 2.7 4.1 5.8 10.7 3.6 7.2 4 8.5 3.2 7.6 1.8 4.5 1.7 2.3 3.6 1.3 2.3 0.5 30 0.4 2.7 0.9-1.3 5.4-4.5 8.5-5 9.9-6.2 10.7-4.1 7.7-7.6 12.5-4.9 8.1-4.1 6.3-4.9 8-5.4 8.1-5.8 8.5-3.1 4.5-4.1 6.3-4.9 7.1-5.8 8.1-3.2 3.6-0.9 0.5-2.7-1.8-4.4-5-3.6-5.4-6.8-8.9-4-6.3-4.5-5.8-4.9-6.3-4.9-5.8-4.1-5-4-4.4-4-5-5-5.4-3.1-3.5-6.7-7.2-3.2-3.6-27.3-27.4-6.3-4.9-5.4-4-3.1-3.6-1.4-4.9v-1.4l0.9-0.4 7.7 0.4 23.7 3.2h5.4l1.8-0.5 1.3-3.1v-4.5l-1.3-5.8-7.6-15.7-3.6-6.8-5-8-5.3-9-5.4-7.2-5.4-8-4.9-5.9-2.3-2.7-4.4-3.5-0.9-0.5v-0.9l-1.4 1.4-3.1 3.5-5 3.2-4.9 7.6-8.5 8.5-3.6 4.5h-63.7l-19.7 0.4h-12.1l-1.3-0.4v-5.8l1.8-3.6 4-3.2 10.7-6.2 8.1-5 4.9-2.2 14.8-5.4 5.4-2.2 9.4-2.3 2.7-0.4h4.1v0.9l0.9-0.5h3.1l3.1 0.9 9.9 1.4 7.2 2.7 4 2.2 3.6 0.9 6.7 0.5 3.6 1.3h1.4v-0.9h0.9l-0.5-2.7 3.1-0.4h3.2l-2.3-1.8 0.5-1.4h0.9l-1.8-1.8-4-1.8-7.2-0.9h-5.8l-1.8-0.4-4.5-0.9-1.4-0.5 0.5-1.7 4.9-1.8 0.5-0.9h1.3v-0.9l0.9-0.9h-7.6v-0.5z"/><path class="a" d="m273.9 238.2h2.3l1.8 1.8-0.5 1.8-3.1 5-4 5.3-5.4 8.6-3.2 4.9-1.8 3.6-1.3 4-0.9 5.4 12.6 1.3 17 1.4 7.2 0.9h7.1l9-0.9 10.3-0.9 13-0.9 5.8-1.3 7.7-3.6 6.7-4.1 5.4-4.9 5.8-4.9 3.6-3.2 1.3-1.8h0.9l0.9-1.8 2.3-2.2 2.2-0.9 0.9 0.9 0.5 2.2 0.4 1.8-3.1 6.3-5.9 9-2.7 4.5-6.7 9.8-4.5 7.2-8.9 16.1-5.9 10.8-5.3 8.5-5.9 8.1-5.3 5.8-5.9 5.8-8.9 6.8-7.7 4-11.6 4.5-10.3 3.1-11.2 2.3-9.9 0.9-6.7 0.4h-33.7l-13.9-0.4-4.4-0.5-0.5 3.2-4 9.4-2.7 5.8-3.1 8.5-1.8 5-0.5 0.4h-2.7l-4-2.2-5.8-5.9-4.1-5.8-5.8-9.4-12.6-21.5-8-16.2-5.4-9.8-5.4-10.4-4.5-8.5-4-7.1-5.4-9.9-5.8-12.1-4.1-9.4v-1.4l14.8-0.4 20.7-1.4 19.2-2.2 11.3-2.2 12.1-3.2 13.4-2.7 13.9-2.2 17.9-5.8 12.6-2.7 7.2-2.7 5.8-3.6 6.7-2.3z"/><path class="a" d="m37.7 60.7h18.8l67.7 1.8 11.6 0.9h31.9l1.3 0.4-0.4 4.5-2.3 5.4-3.1 5.4-8.1 20.6-5.8 15.3-4.9 12.5-5.9 17-4.4 12.1-7.7 27-5.3 27.3-2.3 11.7-0.9 1.8-2.2 0.4-2.7-1.8-2.3-3.6-5.3-12.1-5-11.6-2.7-5-1.8-1.8-2.2 0.9-3.6 3.2-5.8 7.6-5.4 7.2-10.3 15.7-3.6 6.2-4.5 8.5-5.4 14.4-2.2 8.5-1.8 11.2-0.4 4.5-0.5 10.8-0.9 6.7-1.3 1.3-1.4 0.5-4-6.7-5.4-10.4-4.5-7.6-5.4-9.8-5.8-9.9-4-6.7-4.5-6.3-4.9-9.4-5-12.1-2.2-7.6-0.9-5.9v-18.4l0.9-4 3.1-8.1 2.7-8 3.6-9.9 1.4-4 4.4-9 2.3-5.8 3.1-6.8 2.3-4.4 0.4-1.8h0.9l0.5-2.3 3.5-6.2 1.8-2.7 4.5-4.1 2.7-3.6 1.8-3.1 0.5-2.7v-5.4l-2.3-4-3.6-3.6-3.6-4.9-4.4-8.1-3.2-7.2-0.9-1.3v-2.7l3.6-0.4z"/><path class="a" d="m60.1 269.6h7.6l7.6 1.8 7.2 3.2 3.6 2.7 3.6 4 2.7 4.5 2.7 3.6 1.3 2.7 5.4 8.5 6.3 10.7 4.9 9.4 10.7 17.5 4.5 7.2 2.7 4.9 1.8 3.6 1.4 5-4.1 0.9h-5.4l-4.4-1.4-5-2.7-9.8-6.3-7.2-4.9-6.3-4.9-6.3-5.4-11.6-11.7-3.6-4.4-1.4-3.2v-11.6l-2.2-7.7-1.8-3.1v-0.9l-1.3-0.4-3.6-7.2-2.3 0.4v-4.5l1.4-9.8z"/><path class="a" d="m387.4 159.8l1.8 0.9 0.9 14.3v12.6l-0.9 14.8-0.9 6.7-4.1 9.9-5.3 11.6-4.5 7.2-4.1 5.4-4 4.5-5.8 4.9-5 4.9-2.6 1.8-2.7 0.9h-5.9l-3.1-1.3-1.8-2.3-1.8-7.1v-3.6l1.4-5.4h0.8v-1.4h0.9l0.9-2.2 4.5-4 3.2-6.3 1.8-4.5 1.3-1.8 1.3-2.2 1.8-0.5 0.5-1.8 0.4-1.3h0.9l0.5-2.3 3.6-7.1 3.1-5.9 1.4-1.8 1.3-3.1 2.2-7.2 5-10.3 4-6.7 4-5.4 4.1-4.5z"/><path class="b" d="m176.6 0.6l11.3 0.5 4.9 0.4 35.4 0.5 21.1 0.4 12.5 0.5 9.5 0.9 6.7 1.8 11.2 4.4 6.3 3.2 7.6 5.4 7.6 6.2 4.9 5 3.2 3.6 5.8 7.6 4.5 6.3 2.7 4.4 2.7 4.1 5.8 10.7 3.6 7.2 4 8.5 3.2 7.6 1.8 4.5 1.7 2.3 3.6 1.3 2.3 0.5 30 0.4 2.7 0.9-0.9 4-0.4-1.3-2.3-0.4-1.3-0.9-6.3-0.5-4 0.5-2.3 0.4h-10.7l-2.7-0.9h-4.5l-4.1-0.9-2.2-1.8-2.7-5.4-3.1-8.9-10.3-20.7-3.6-4.9-4.5-6.3-2.7-4-3.1-4.5-2.3-2.2-4-4.5-2.3-2.7v-0.9l-1.3-0.4-3.1-3.6-2.3-2.3-5.4-4.9-4.9-3.6-4-3.1-3.2-1.8-5.3-2.3-5-1.3-1.3-0.5-9.4-0.9-1.4-0.4-10.3-0.5h-10.3l-9.9 0.9h-7.1l-3.6-0.4h-7.2l-3.1 0.4-17.1 0.5v0.9h-1.3l0.4 2.2 1.8 1.8v0.9l1.8 0.9 2.3 3.6-1.4 1.4-3.1 3.5-5 3.2-1.8 1.8-3.5-4.5-1.4-0.5v-0.9l-4.5-1.3-1.3-0.5h-6.3l-6.7-2.2-0.5-0.9h-4.4l-8.1 0.9-3.6-0.9h-3.6l-0.9 0.5-6.7 0.4-4.1 1.4h-11.6l0.4-1.4h-1.8v-0.9l-4 2.3h-2.7l-0.9-0.9 8.5-3.2 5.4-2.2 9.4-2.3 2.7-0.4h4.1v0.9l0.9-0.5h3.1l3.1 0.9 9.9 1.4 7.2 2.7 4 2.2 3.6 0.9 6.7 0.5 3.6 1.3h1.4v-0.9h0.9l-0.5-2.7 3.1-0.4h3.2l-2.3-1.8 0.5-1.4h0.9l-1.8-1.8-4-1.8-7.2-0.9h-5.8l-1.8-0.4-4.5-0.9-1.4-0.5 0.5-1.7 4.9-1.8 0.5-0.9h1.3v-0.9l0.9-0.9h-7.6v-0.5z"/><path class="b" d="m60.1 269.6h7.6l7.6 1.8 7.2 3.2 3.6 2.7 3.6 4 2.7 4.5 2.7 3.6 1.3 2.7 5.4 8.5 6.3 10.7 4.9 9.4 10.7 17.5 4.5 7.2-0.9 0.9-2.2-2.2-3.6-5-3.1-4.9-1.8-3.6-1.8-2.7v-0.9h-0.9l-3.6-4.9-3.6-5.8-5.4-9.5-2.7-4.4-3.5-6.3-4.5-6.7-5.4-7.2-3.2-3.2-4.4-2.6-4.5-2.3-4.1-0.9h-3.1l-2.7 1.4-0.9 1.8 0.5 4.9 2.2 5.8 4.5 8.5 1.3 8.1-0.9 2.7h-0.4l-1.4-6.3-1.7-5.4-1.4-2.2v-0.9l-1.3-0.4-3.6-7.2-2.3 0.4v-4.5l1.4-9.8z"/><path class="c" d="m141.2 11.4h4.1v0.9l0.9-0.5h3.1l3.1 0.9 9.9 1.4 7.2 2.7 4 2.2 3.6 0.9 6.7 0.5 3.6 1.3h1.4v-0.9h0.9l-0.5-2.7 3.1-0.4h3.2l-2.3-1.8 0.5-1.4h0.9l-0.5-1.3 2.3 0.9 5.8 4 0.5 0.9-1.4 1.4-3.1 3.5-5 3.2-1.8 1.8-3.5-4.5-1.4-0.5v-0.9l-4.5-1.3-1.3-0.5h-6.3l-6.7-2.2-0.5-0.9h-4.4l-8.1 0.9-3.6-0.9h-3.6l-0.9 0.5-6.7 0.4-4.1 1.4h-11.6l0.4-1.4h-1.8v-0.9l-4 2.3h-2.7l-0.9-0.9 8.5-3.2 5.4-2.2 9.4-2.3z"/><path class="b" d="m208.9 97.5l7.7 0.4 20.1 2.7v0.5l-4 0.4-5.8 1.3-4.1 1.4-1.8 2.2 0.5 2.3 4 5.8 4.1 3.1 8 8.1 3.6 3.2 3.2 3.1v0.9l1.7 0.9 3.6 3.6v0.9l1.8 0.9 3.2 3.6 0.4 1.3h0.9l3.1 3.6 5.9 7.2 3.1 3.5 3.2 4.1v0.9l1.3 0.4 1.8 3.2-0.9 1.8-4-5-5-5.4-3.1-3.5-6.7-7.2-3.2-3.6-27.3-27.4-6.3-4.9-5.4-4-3.1-3.6-1.4-4.9v-1.4z"/><path class="d" d="m273.9 238.2h2.3l1.8 1.8-0.5 1.8-3.1 5-3.1 4h-1.8v-1.3l-4.1-1.4-4-0.9-5.4 1.8-0.9 0.5-1.8-0.5-4.5 1.4-0.9 0.9-4.9 0.4-3.6 1.8-8.1 2.2-8.9 2.3-5.4 0.9-2.7 1.3-2.7 0.5-3.1 0.4-0.5 0.5-5.8 0.9-5.8-1.4v-0.9l18.8-3.1 17.9-5.8 12.6-2.7 7.2-2.7 5.8-3.6 6.7-2.3z"/><path class="c" d="m376.2 250.8l1.3 0.9 0.5 2.2 0.4 1.8-3.1 6.3-5.9 9-2.7 4.5-0.8 0.4 0.4-3.6-0.9-2.2-3.1-0.5-7.2 3.6-5.4 1.4-4 3.1-3.2 0.5-1.8-0.5 7.2-3.6 5-2.7 4.4-3.6 3.6-3.5 6.3-5 3.1-3.6h0.9l0.9-1.8 2.3-2.2z"/><path class="b" d="m89.7 32.5l0.9 0.9-2.3 1.7-2.2 4.5-3.2 4.1-0.4 1.3h2.2l2.7 1.4h3.6l1.8 0.4 5.4-0.4h24.2l15.7-0.9h28.2l8.1-0.5 2.2-0.9h1.8l0.5-0.9v1.4l-2.7 3.1h-63.7l-19.7 0.4h-12.1l-1.3-0.4v-5.8l1.8-3.6 4-3.2z"/><path class="e" d="m176.6 0.6l11.3 0.5 4.9 0.4 35.4 0.5 21.1 0.4v0.5h-40.4l-5.3 0.4-5 0.9-12.1 0.5-2.7 1.8-0.9 0.8 1.4 1.4 4.5 1.3v0.5l-11.3-0.5-3.5-0.4-4.5-0.9-1.4-0.5 0.5-1.7 4.9-1.8 0.5-0.9h1.3v-0.9l0.9-0.9h-7.6v-0.5z"/><path class="f" d="m37.7 60.7h18.8v0.5l-14.4 0.4-6.7 3.1-4.5 1.8-1.8 0.9v3.6l1.8 3.6 1.4 4.5 3.1 4 3.2 3.2 2.2 3.1-0.4 3.1-1.4-1.8-3.1-3.5-4.5-5.4-4.9-9-3.2-7.2-0.9-1.3v-2.7l3.6-0.4z"/><path class="b" d="m365.4 197.4l0.9 0.5-0.4 5.4-2.7 4.5-3.6 6.2-2.3 3.6-2.7 5.4-5.3 7.6-1.8 3.6-1.4 3.6-1.8 3.6-1.3 1.3h-0.9l-0.5 1.8-2.2 2.3-0.4 5.3h-0.9l-0.5-2.6v-3.6l1.4-5.4h0.8v-1.4h0.9l0.9-2.2 4.5-4 3.2-6.3 1.8-4.5 1.3-1.8 1.3-2.2 1.8-0.5 0.5-1.8 0.4-1.3h0.9l0.5-2.3 3.6-7.1 3.1-5.9z"/><path class="b" d="m387.4 159.8l1.8 0.9 0.4 7.2-0.4 0.9h-1.8v-0.9h-2.3l-3.6 3.1-3.1 4.5-3.1 4.9-2.3 3.2h-0.9l-0.9 4h-0.9l-0.9 4.5-0.9 1.3h-0.9l0.9-3.6 2.3-5.8 4.5-9 4.5-6.7 3.1-4 3.6-4.1z"/><path class="e" d="m194.1 13.2l2.3 0.9 5.8 4 0.5 0.9-1.4 1.4-3.1 3.5-5 3.2-0.9 0.9-2.2-3.6-3.1-1.8 0.4-0.9h1.4v-0.9h0.9l-0.5-2.7 3.1-0.4h3.2l-2.3-1.8 0.5-1.4h0.9z"/><path class="e" d="m35.4 108.2v1.4l-3.1 4.5-0.5 0.9h-0.9l-0.9 2.6-1.3 2.3-3.6 6.3-4.9 10.3-3.6 7.1-3.1 7.2-2.7 7.6-2.7 8.1-1.4 3.6-1.3 4-3.6 8.6-0.5 0.4-0.9 4.5h-0.4l0.4-4.9 3.6-9.5 2.7-8 3.6-9.9 1.4-4 4.4-9 2.3-5.8 3.1-6.8 2.3-4.4 0.4-1.8h0.9l0.5-2.3 3.5-6.2 1.8-2.7z"/><path class="b" d="m130.5 270.5h3.6l-0.5 1.8-7.6 1.4-4.9 1.8-5.4 2.7-0.9 1.3-2.3-0.5-2.7-6.2v-1.4l14.8-0.4z"/><path class="e" d="m376.2 250.8l1.3 0.9 0.5 2.2 0.4 1.8-3.1 6.3-3.6 5.4-0.9-0.5 0.4-2.2v-2.2l-6.2-0.9 2.2-2.3 3.1-3.6h0.9l0.9-1.8 2.3-2.2z"/><path class="g" d="m89.7 32.5l0.9 0.9-2.3 1.7-2.2 4.5-3.2 4.1-0.4 1.3h2.2l2.7 1.4h3.6l0.9 1.3h-12.5v-5.8l1.8-3.6 4-3.2z"/><path class="b" d="m37.2 278.6l1.8 0.4 0.5 1.8 1.7 0.9 1.8 2.7 4.5 2.3 2.3 0.9v4l-0.9 3.6-2.3 0.9-4-6.7-5.4-10.4z"/><path class="h" d="m39 103.3h0.5v2.7l-3.2 4.5-2.7 4.9-4.5 5.4-0.9 1.8h-0.9l-0.4 2.7-3.6 7.1-3.6 6.3-2.2 5.4-1.4 2.2-2.2 5.9-2.2 5.3-0.9 2.3-0.5-1.4 3.2-8.9 5.3-11.2 4.5-9.4 4.9-9 1.4-2.3 1.3-2.6h0.9l0.9-2.3 2.7-3.6 0.9-2.2 1.8-2.3z"/><path class="d" d="m3.1 212.2l1.8 0.5 2.3 4.5 2.2 5.4 1.4 3.5 0.4 4.5-2.2 0.5-5.4-12.6-1.4-4 0.5-1.8z"/><path class="e" d="m299.9 16.8l3.2 1.8 7.6 6.2 4.9 5 3.2 3.6 5.8 7.6 4.5 6.3 2.7 4.4 2.7 4.1 2.7 4.9-0.5 0.9-4-5.8-5.4-8.1-1.4-2.2-2.6-3.6-0.5-1.4h-0.9l-1.8-2.7-2.2-2.7-0.5-1.3-0.9-0.4v-1.4l-1.8-0.9-2.2-3.1-1.8-1.4v-0.9l-1.8-0.9-2.7-1.8v-0.9l-2.2-0.9v-0.8l-1.8-0.9-2.3-1.8z"/><path class="b" d="m109.8 214l0.9 0.5v0.9l1.8 0.9 3.2 0.4 3.6 2.3-0.5 3.6-0.9 1.8-2.2 0.4-2.7-1.8-2.3-3.6-1.8-4.5z"/><path class="e" d="m229.6 121.7l1.7 0.4 1.8 0.9v0.9l1.8 0.9 5 4.5v0.9l1.8 0.9 2.7 3.1 2.6 2.3 6.3 7.1 0.9 2.3-1.8-0.9-22.8-22.9z"/><path class="e" d="m84.7 276.8l1.8 0.9 4.1 4.9 2.2 3.6 2.3 3.2 1.3 2.7 5.4 8.5 6.3 10.7 4.9 9.4 1.8 2.7v0.9h-0.9l-3.2-4.9-4-7.6-2.7-5.4-1.3-2.2-4.1-6.3-5.8-9.4-1.8-2.7v-0.9l-0.9-0.5-3.1-4-0.5-1.4-1.8-1.7z"/><path class="h" d="m9.9 159.8l0.4 1.8-2.2 8.5-1.8 7.2-1.4 4-2.2 4.5-1.4 0.4-0.9 4.1h-0.4l0.4-4.1 0.5-3.1 2.7-5.8 1.8-4.1 0.9-3.1 1.8-4.9z"/><path class="e" d="m208.9 97.5l4.5 0.4 2.7 0.5-2.7 3.1-0.4 2.7 0.9 3.1-0.9 0.9-3.2-3.1-1.8-5.8v-1.4z"/><path class="e" d="m24.7 61.2h10.3v0.4l-4.5 0.4-4.9 2.7 1.7 5.9 0.9 2.7-0.4 1.8-5.4-10.8v-2.7z"/><path class="h" d="m175.8 392.5l2.2 0.9 3.1 2.2 5.9 1.4 1.3 2.7-0.9 1.3h-2.7l-4-2.2-3.2-3.2-1.3-2.2z"/><path class="g" d="m186.1 262.5l0.9 0.4-1.4 2.7-3.6 0.9-4.5 1.3h-3.1l-2.2-0.9v-0.9z"/><path class="i" d="m39 103.3h0.5v2.7l-3.2 4.5-2.7 4.9-4.5 5.4h-0.9l0.9-2.7 1.4-2.3 0.4-0.8h0.9l0.9-2.3 2.7-3.6 0.9-2.2 1.8-2.3z"/><path class="j" d="m95.5 46.4l26.9 0.4v0.5l-9.9 0.4-19.7 0.4h-12.1v-0.4l11.2-0.4z"/><path class="d" d="m71.7 317.2l2.3 1.3 0.9 1.8h0.9l4.9 6.3 0.5 1.3-2.3-0.4-4.9-5-2.7-3.1z"/><path class="d" d="m159.6 63.4h8.1l1.3 0.4-0.4 4.5h-1.4l-1.8-1.8-4-0.9-3.6-0.4-0.4-0.9h2.7z"/><path class="e" d="m141.2 11.4h4.1v0.9l0.9-0.5h3.1l3.1 0.9 4.5 0.5v0.4h-16.6l-1.8-0.9v-0.9z"/><path class="e" d="m345.7 233.3l0.4 0.9-2.7 4-1.8 3.2-1.3 2.2h-0.9l-1.3 5.9h-0.5v-3.6l1.4-5.4h0.8v-1.4h0.9l0.9-2.2z"/><path class="e" d="m109.8 271.4h12.2v0.9l-5 0.9-3.1 0.9-3.2 0.5-0.9-1.8z"/><path class="i" d="m108.5 350.3l4 1.4 6.3 4 0.9 1.4 1.8 0.9-1.3 0.4-5-2.7-7.1-4.5z"/><path class="b" d="m313.4 218.1l2.7 0.9 3.6 0.9 0.4 1.3-2.7 2.3-2.7-1.8-1.8-2.3z"/><path class="e" d="m58.7 272.3h0.5l0.4 5.9 1.4 5.8-3.2 0.4v-4.5z"/><path class="i" d="m314.3 280.8h3.1l-0.4 1.8-4.1 0.5h-4l-1.3-0.5v-0.9z"/><path class="k" d="m387.8 206.9h0.5l-0.5 3.6-4 9.4h-0.5v-4.1l3.6-6.2z"/><path class="e" d="m49.3 289.8l0.5 1.8-0.9 3.6-2.3 0.9-2.2-4 4-0.5z"/><path class="k" d="m349.7 273.2l0.9 0.5-3.6 3.1-2.2 1.4h-4.1l1.4-0.9z"/></svg>