<svg version="1.2" xmlns="http://www.w3.org/2000/svg" viewBox="0 0 119 98" width="119" height="98"><style>.a{fill:#fff}</style><path class="a" d="m9 27.9h1l0.8 0.3 1 0.9 0.7 1.4 0.2 0.6 0.1 0.9v2l-0.3 6.8-0.5 5.9-0.6 5.5-0.5 2.4-0.6 1.1-1.1 1.6-0.4 0.8-0.4 1.1v1l-0.2 0.6 0.2 1 0.9 2.1 0.8 1.6 1.4 2.4 1.1 1.9 1.1 1.8 1 1.7 0.7 1.2 1.3 2.2 2.4 4.2 1 1.7 0.5 0.6 1 0.7 0.7 0.3h0.7l0.6-0.3 0.3-0.5v-0.7l-0.7-1.6-1.5-2.6-1.2-2.2-1.2-2-1.5-2.5-0.8-1.3-1.5-2.5-1.3-2.5-1.6-2.8-0.5-1.2-0.1-0.4v-1.3l0.3-1.1 0.4-0.6 0.9-0.6 0.9-0.2h1l1.4 0.3 1.1 0.6 2.1 1.8 1.2 1.7 0.9 1.5 0.8 1.2 1.3 2.2 0.8 1.5 0.9 1.6 1.1 1.9 1 1.7 0.8 1.3 0.9 1.3 0.7 0.4 2.4 0.7 2.9 0.8 2.1 0.7 1.6 0.8 1.4 0.9 1.6 1.4 0.9 0.9 1 1.3 0.9 1.4 1.3 2.7 0.8 2.2 0.5 2.2 0.4 2.8 0.2 1.5v1.1l-1 0.2-10.4 0.1-17.1-0.1-0.9-0.1-0.8-0.7-0.9-1.5-2.3-4.5-0.9-1.9-1.4-2.7-1.7-3.3-1.5-2.7-1.2-2.3-1-1.9-1-2-1.2-2.1-1.7-3.4-1.2-2.3-1-1.9-0.7-1.4-0.5-1.7-0.1-0.7v-1.6l0.4-2.4 1.6-6.1 1.7-6.6 1.1-4 1.2-5 1.3-4.7 0.5-1.5 0.6-0.7z"/><path class="a" d="m108.2 30h0.8l0.6 0.4 0.7 0.8 0.6 1.3 0.6 2.2 1.5 5.5 0.9 3.4 1.6 6 1.2 4.7 0.9 3.4 0.3 1.4 0.2 1.3v1l-0.2 1.5-0.6 1.7-1.1 2.4-1 1.9-1.2 2.2-1.4 2.5-1.1 2.1-0.7 1.4-0.8 1.4-1.1 2.1-0.8 1.6-1.2 2.2-1.9 3.6-1.8 3.7-1.9 3.6-1 2.2-0.4 0.4-0.5 0.1-5 0.1h-11.9l-10.8-0.1-0.7-0.2v-1.4l0.5-3.6 0.6-2.3 0.5-1.7 1.1-2.4 0.9-1.4 0.9-1.3 0.9-0.9 0.7-0.8 0.9-0.9 1.6-1.1 1-0.5 2.7-1 1.6-0.5 0.9-0.2 2-0.5 0.8-0.1 0.5-0.5 0.7-1.1 0.6-0.9 1.6-2.7 1-1.6 1.3-2.3 1-1.8 0.6-0.9 0.9-1.7 1.3-1.8 1.3-1.4 1-0.9 1.5-0.8 1.1-0.3h1.4l1 0.4 0.6 0.7 0.3 0.8 0.1 0.3v1.5l-0.4 1.5-0.6 1.2-0.7 1-0.4 0.5-0.5 1.2-0.8 1.3-1.3 2.3-0.8 1.4-0.7 1-0.6 1-0.6 1.1-0.4 0.8-0.7 1.1-1.3 2.4-1.1 1.7-0.9 1.7v0.6l0.3 0.2 1.7 0.2 0.3 0.3h0.4l0.2-0.4 0.5-0.5 0.5-0.6 0.8-1.5 1-1.6 0.8-1.3 1.1-2 0.7-1.1 0.6-1 0.9-1.7 1.1-1.7 1-1.6 1.2-2.2 0.6-1 1-2.2 0.8-2.2-0.3-1.5-0.6-1.5-1.7-2.9-0.1-0.3-0.2-0.1 0.1-0.9-0.2-0.5-0.3-3-0.7-6.9-0.3-4.2v-6.2l0.2-1.3 0.4-1.2 0.7-0.9 0.9-0.6z"/><path class="a" d="m48.9 25.1h20.8l3.5 0.2 0.4 0.5 0.2 0.9 0.1 3v12.1l-0.3 4.4-0.1 1.7-0.4 0.7-0.6 0.3h-5.3l-6.1-0.2h-12.5l-0.2-0.4-0.3-1.3-0.3-5.1v-10.6l0.2-3.9 0.2-2z"/><path class="a" d="m27.9 25.1h15.6l0.4 0.2v1.2l-0.3 1.9-0.2 5.3v4.8l0.2 5.4 0.2 1.7v3.1l-0.3 0.2h-16.9l-0.6-0.7-1-1.8-0.5-2-0.5-3.7v-5.9l0.4-4 0.6-3.8 0.4-1.2 0.6-0.5z"/><path class="a" d="m78.1 25.1h16.8l1.3 0.3 0.4 0.7 0.6 2.8 0.4 2.9 0.3 3.2v4.7l-0.3 2.5-0.6 3.2-0.7 2.4-0.5 0.7-0.9 0.2h-16.2l-0.5-0.2-0.1-0.4v-1.5l0.1-1.7 0.2-3.2v-8.2l-0.3-4.6-0.1-1.7v-1.9z"/><path class="a" d="m50.3 53.3h18.4l3.6 0.1 0.4 0.2v1l-0.5 1.3-0.9 3.3-1.3 3.8-1.5 3.3-1 2.1-1.1 1.8-1.3 1.7-0.9 1.1-1.4 0.9-1.2 0.2h-1.2l-1.8-0.6-1.5-1.1-1.3-1.3-0.9-1.4-1.6-3-0.9-2-1.2-3.1-0.9-3.3-0.9-3.3-0.1-0.6v-1z"/><path class="a" d="m60.1 0h1.4l1.5 0.3 1.3 0.7 1.2 1.5 2 3 1 2 1.3 2.8 1.5 4 1.2 4.3 0.1 1.2-1.4 0.2-3.1 0.3h-1.7l-1.5 0.1-2.9-0.1-6.3 0.3-1.4 0.1h-4l-0.2-0.1v-0.4l1.1-0.3-1.8-0.1-0.3-0.2 0.2-0.9 1.3-4.3 1.4-3.9 1.7-4 1.5-2.6 1-1.3 1.2-1.3 1-0.8 1.1-0.4z"/><path class="a" d="m28.6 53.3h14.5l1.2 0.1 0.5 0.6 1.1 4.5 0.6 2.5 1.2 3.4 1.8 3.7 0.7 1.4 0.8 2 0.5 1.1v0.4l-1-0.3-2.1-0.8-3.3-1.6-3.4-1.9-1.7-1.1-2.2-1.5-1.4-1.2-1.7-1.7-1.1-1.5-1.2-1.3-1.5-1.8-1.3-1.6-1.3-2-0.4-0.9v-0.4z"/><path class="a" d="m77.6 53.3h14.2l1.9 0.1 0.2 0.2-0.1 0.6-0.8 1.5-1.3 1.7-1 1.3-0.9 1.3-1.6 1.8-2.8 2.8-2.2 1.5-2 1.5-1.9 1.2-2.3 1.3-1.9 1-3.3 1.5-1.2 0.2 0.2-0.8 0.6-1.5 1.6-3.3 1.2-2.5 1.4-4.7 1.6-6.3z"/><path class="a" d="m70.6 1h1.1l1 0.4 1.3 0.6 2.3 1 2.4 1.2 1.9 1.2 2.1 1.5 1.3 1.1 1.7 1.4 1.3 1.2 2.1 2 1 1.4 1.1 1.3 1.3 2 0.9 1.4 0.7 0.9v0.3l-0.4 0.1h-9.8l-5.8 0.2-0.8-0.3-0.5-0.9-0.5-2-1-4.2-0.9-3.2-1.3-3.2-1.2-2.5-1-1.8z"/><path class="a" d="m50.9 0.9h0.5l-0.2 0.8-0.9 2.1-0.8 1-1.7 4-1.4 4.2-0.9 3.2-0.8 3.3-0.4 0.5h-16.4v-0.6l1.9-2.8 1.1-1.5 1.2-1.5 1.7-1.9 2.5-2.5 1.5-1.2 1.7-1.5 3.1-2 1.4-0.8 3.8-1.7 2-0.8z"/></svg>